<?xml version="1.0" standalone="no"?>
<svg xmlns:xlink="http://www.w3.org/1999/xlink" id="wave" style="transform:rotate(180deg); transition: 0.3s" viewBox="0 0 1440 490" version="1.1" xmlns="http://www.w3.org/2000/svg"><defs><linearGradient id="sw-gradient-0" x1="0" x2="0" y1="1" y2="0"><stop stop-color="rgba(93, 118, 152, 1)" offset="0%"/><stop stop-color="rgba(93, 118, 152, 0.3)" offset="100%"/></linearGradient></defs><path style="transform:translate(0, 0px); opacity:1" fill="url(#sw-gradient-0)" d="M0,196L34.3,228.7C68.6,261,137,327,206,318.5C274.3,310,343,229,411,163.3C480,98,549,49,617,24.5C685.7,0,754,0,823,24.5C891.4,49,960,98,1029,147C1097.1,196,1166,245,1234,228.7C1302.9,212,1371,131,1440,138.8C1508.6,147,1577,245,1646,302.2C1714.3,359,1783,376,1851,359.3C1920,343,1989,294,2057,269.5C2125.7,245,2194,245,2263,212.3C2331.4,180,2400,114,2469,130.7C2537.1,147,2606,245,2674,269.5C2742.9,294,2811,245,2880,253.2C2948.6,261,3017,327,3086,302.2C3154.3,278,3223,163,3291,130.7C3360,98,3429,147,3497,163.3C3565.7,180,3634,163,3703,204.2C3771.4,245,3840,343,3909,334.8C3977.1,327,4046,212,4114,147C4182.9,82,4251,65,4320,122.5C4388.6,180,4457,310,4526,343C4594.3,376,4663,310,4731,245C4800,180,4869,114,4903,81.7L4937.1,49L4937.1,490L4902.9,490C4868.6,490,4800,490,4731,490C4662.9,490,4594,490,4526,490C4457.1,490,4389,490,4320,490C4251.4,490,4183,490,4114,490C4045.7,490,3977,490,3909,490C3840,490,3771,490,3703,490C3634.3,490,3566,490,3497,490C3428.6,490,3360,490,3291,490C3222.9,490,3154,490,3086,490C3017.1,490,2949,490,2880,490C2811.4,490,2743,490,2674,490C2605.7,490,2537,490,2469,490C2400,490,2331,490,2263,490C2194.3,490,2126,490,2057,490C1988.6,490,1920,490,1851,490C1782.9,490,1714,490,1646,490C1577.1,490,1509,490,1440,490C1371.4,490,1303,490,1234,490C1165.7,490,1097,490,1029,490C960,490,891,490,823,490C754.3,490,686,490,617,490C548.6,490,480,490,411,490C342.9,490,274,490,206,490C137.1,490,69,490,34,490L0,490Z"/></svg>